<?xml version="1.0" encoding="UTF-8" standalone="no"?>
<!DOCTYPE svg PUBLIC "-//W3C//DTD SVG 1.1//EN"
 "http://www.w3.org/Graphics/SVG/1.1/DTD/svg11.dtd">
<!-- Generated by graphviz version 2.30.1 (20180420.1509)
 -->
<!-- Title: snakemake_dag Pages: 1 -->
<svg width="1082pt" height="692pt"
 viewBox="0.00 0.00 1082.10 692.00" xmlns="http://www.w3.org/2000/svg" xmlns:xlink="http://www.w3.org/1999/xlink">
<g id="graph0" class="graph" transform="scale(1 1) rotate(0) translate(4 688)">
<title>snakemake_dag</title>
<polygon fill="white" stroke="white" points="-4,5 -4,-688 1079.1,-688 1079.1,5 -4,5"/>
<!-- 0 -->
<g id="node1" class="node"><title>0</title>
<path fill="none" stroke="#c6d856" stroke-width="2" d="M488.346,-36C488.346,-36 403.846,-36 403.846,-36 397.846,-36 391.846,-30 391.846,-24 391.846,-24 391.846,-12 391.846,-12 391.846,-6 397.846,-0 403.846,-0 403.846,-0 488.346,-0 488.346,-0 494.346,-0 500.346,-6 500.346,-12 500.346,-12 500.346,-24 500.346,-24 500.346,-30 494.346,-36 488.346,-36"/>
<text text-anchor="middle" x="446.096" y="-15.5" font-family="sans" font-size="10.00">require_everything</text>
</g>
<!-- 1 -->
<g id="node2" class="node"><title>1</title>
<path fill="none" stroke="#80d856" stroke-width="2" d="M140.096,-108C140.096,-108 78.0959,-108 78.0959,-108 72.0959,-108 66.0959,-102 66.0959,-96 66.0959,-96 66.0959,-84 66.0959,-84 66.0959,-78 72.0959,-72 78.0959,-72 78.0959,-72 140.096,-72 140.096,-72 146.096,-72 152.096,-78 152.096,-84 152.096,-84 152.096,-96 152.096,-96 152.096,-102 146.096,-108 140.096,-108"/>
<text text-anchor="middle" x="109.096" y="-87.5" font-family="sans" font-size="10.00">require_peaks</text>
</g>
<!-- 1&#45;&gt;0 -->
<g id="edge10" class="edge"><title>1&#45;&gt;0</title>
<path fill="none" stroke="grey" stroke-width="2" d="M152.097,-74.457C155.13,-73.5811 158.151,-72.7517 161.096,-72 235.964,-52.8896 323.539,-37.6385 381.651,-28.4911"/>
<polygon fill="grey" stroke="grey" points="382.449,-31.909 391.791,-26.91 381.371,-24.9926 382.449,-31.909"/>
</g>
<!-- 2 -->
<g id="node3" class="node"><title>2</title>
<path fill="none" stroke="#5663d8" stroke-width="2" d="M887.346,-180C887.346,-180 810.846,-180 810.846,-180 804.846,-180 798.846,-174 798.846,-168 798.846,-168 798.846,-156 798.846,-156 798.846,-150 804.846,-144 810.846,-144 810.846,-144 887.346,-144 887.346,-144 893.346,-144 899.346,-150 899.346,-156 899.346,-156 899.346,-168 899.346,-168 899.346,-174 893.346,-180 887.346,-180"/>
<text text-anchor="middle" x="849.096" y="-159.5" font-family="sans" font-size="10.00">require_barcodes</text>
</g>
<!-- 2&#45;&gt;0 -->
<g id="edge6" class="edge"><title>2&#45;&gt;0</title>
<path fill="none" stroke="grey" stroke-width="2" d="M840.843,-143.711C829.989,-123.017 808.868,-89.0262 780.096,-72 735.654,-45.7008 594.578,-30.5191 510.66,-23.5941"/>
<polygon fill="grey" stroke="grey" points="510.718,-20.0875 500.469,-22.7705 510.154,-27.0647 510.718,-20.0875"/>
</g>
<!-- 3 -->
<g id="node4" class="node"><title>3</title>
<path fill="none" stroke="#56d8b1" stroke-width="2" d="M406.096,-108C406.096,-108 312.096,-108 312.096,-108 306.096,-108 300.096,-102 300.096,-96 300.096,-96 300.096,-84 300.096,-84 300.096,-78 306.096,-72 312.096,-72 312.096,-72 406.096,-72 406.096,-72 412.096,-72 418.096,-78 418.096,-84 418.096,-84 418.096,-96 418.096,-96 418.096,-102 412.096,-108 406.096,-108"/>
<text text-anchor="middle" x="359.096" y="-87.5" font-family="sans" font-size="10.00">require_filter_bigWig</text>
</g>
<!-- 3&#45;&gt;0 -->
<g id="edge11" class="edge"><title>3&#45;&gt;0</title>
<path fill="none" stroke="grey" stroke-width="2" d="M380.602,-71.6966C391.558,-62.8807 405.042,-52.0321 416.921,-42.4742"/>
<polygon fill="grey" stroke="grey" points="419.241,-45.1001 424.838,-36.1043 414.852,-39.6462 419.241,-45.1001"/>
</g>
<!-- 4 -->
<g id="node5" class="node"><title>4</title>
<path fill="none" stroke="#56d85b" stroke-width="2" d="M474.096,-180C474.096,-180 368.096,-180 368.096,-180 362.096,-180 356.096,-174 356.096,-168 356.096,-168 356.096,-156 356.096,-156 356.096,-150 362.096,-144 368.096,-144 368.096,-144 474.096,-144 474.096,-144 480.096,-144 486.096,-150 486.096,-156 486.096,-156 486.096,-168 486.096,-168 486.096,-174 480.096,-180 474.096,-180"/>
<text text-anchor="middle" x="421.096" y="-159.5" font-family="sans" font-size="10.00">require_filter_sort_bam</text>
</g>
<!-- 4&#45;&gt;0 -->
<g id="edge7" class="edge"><title>4&#45;&gt;0</title>
<path fill="none" stroke="grey" stroke-width="2" d="M424.112,-143.871C428.372,-119.67 436.2,-75.2108 441.273,-46.3932"/>
<polygon fill="grey" stroke="grey" points="444.783,-46.6447 443.07,-36.1893 437.889,-45.4309 444.783,-46.6447"/>
</g>
<!-- 5 -->
<g id="node6" class="node"><title>5</title>
<path fill="none" stroke="#d86656" stroke-width="2" d="M726.096,-108C726.096,-108 644.096,-108 644.096,-108 638.096,-108 632.096,-102 632.096,-96 632.096,-96 632.096,-84 632.096,-84 632.096,-78 638.096,-72 644.096,-72 644.096,-72 726.096,-72 726.096,-72 732.096,-72 738.096,-78 738.096,-84 738.096,-84 738.096,-96 738.096,-96 738.096,-102 732.096,-108 726.096,-108"/>
<text text-anchor="middle" x="685.096" y="-87.5" font-family="sans" font-size="10.00">require_filter_bam</text>
</g>
<!-- 5&#45;&gt;0 -->
<g id="edge4" class="edge"><title>5&#45;&gt;0</title>
<path fill="none" stroke="grey" stroke-width="2" d="M632.054,-73.4647C596.202,-62.964 548.647,-49.0358 510.603,-37.8932"/>
<polygon fill="grey" stroke="grey" points="511.227,-34.4291 500.646,-34.9772 509.26,-41.1469 511.227,-34.4291"/>
</g>
<!-- 6 -->
<g id="node7" class="node"><title>6</title>
<path fill="none" stroke="#afd856" stroke-width="2" d="M747.346,-324C747.346,-324 658.846,-324 658.846,-324 652.846,-324 646.846,-318 646.846,-312 646.846,-312 646.846,-300 646.846,-300 646.846,-294 652.846,-288 658.846,-288 658.846,-288 747.346,-288 747.346,-288 753.346,-288 759.346,-294 759.346,-300 759.346,-300 759.346,-312 759.346,-312 759.346,-318 753.346,-324 747.346,-324"/>
<text text-anchor="middle" x="703.096" y="-303.5" font-family="sans" font-size="10.00">require_dedup_bam</text>
</g>
<!-- 6&#45;&gt;0 -->
<g id="edge5" class="edge"><title>6&#45;&gt;0</title>
<path fill="none" stroke="grey" stroke-width="2" d="M722.096,-287.823C731.222,-278.282 741.217,-265.607 746.096,-252 773.097,-176.693 798.527,-133.278 747.096,-72 717.551,-36.7987 590.175,-24.969 510.889,-20.9992"/>
<polygon fill="grey" stroke="grey" points="510.668,-17.485 500.514,-20.5106 510.339,-24.4772 510.668,-17.485"/>
</g>
<!-- 7 -->
<g id="node8" class="node"><title>7</title>
<path fill="none" stroke="#d6d856" stroke-width="2" d="M285.346,-324C285.346,-324 202.846,-324 202.846,-324 196.846,-324 190.846,-318 190.846,-312 190.846,-312 190.846,-300 190.846,-300 190.846,-294 196.846,-288 202.846,-288 202.846,-288 285.346,-288 285.346,-288 291.346,-288 297.346,-294 297.346,-300 297.346,-300 297.346,-312 297.346,-312 297.346,-318 291.346,-324 285.346,-324"/>
<text text-anchor="middle" x="244.096" y="-303.5" font-family="sans" font-size="10.00">require_csort_bam</text>
</g>
<!-- 7&#45;&gt;0 -->
<g id="edge2" class="edge"><title>7&#45;&gt;0</title>
<path fill="none" stroke="grey" stroke-width="2" d="M190.7,-297.763C158.157,-290.881 117.667,-277.574 90.0959,-252 30.4659,-196.688 3.60726,-133.27 57.0959,-72 98.386,-24.7029 281.709,-18.032 381.252,-18.009"/>
<polygon fill="grey" stroke="grey" points="381.489,-21.5094 391.496,-18.03 381.503,-14.5094 381.489,-21.5094"/>
</g>
<!-- 8 -->
<g id="node9" class="node"><title>8</title>
<path fill="none" stroke="#d8cb56" stroke-width="2" d="M269.346,-108C269.346,-108 182.846,-108 182.846,-108 176.846,-108 170.846,-102 170.846,-96 170.846,-96 170.846,-84 170.846,-84 170.846,-78 176.846,-72 182.846,-72 182.846,-72 269.346,-72 269.346,-72 275.346,-72 281.346,-78 281.346,-84 281.346,-84 281.346,-96 281.346,-96 281.346,-102 275.346,-108 269.346,-108"/>
<text text-anchor="middle" x="226.096" y="-87.5" font-family="sans" font-size="10.00">require_mapq_bam</text>
</g>
<!-- 8&#45;&gt;0 -->
<g id="edge1" class="edge"><title>8&#45;&gt;0</title>
<path fill="none" stroke="grey" stroke-width="2" d="M279.633,-71.9656C310.639,-62.1 349.857,-49.6215 382.437,-39.255"/>
<polygon fill="grey" stroke="grey" points="383.851,-42.4782 392.319,-36.1108 381.729,-35.8077 383.851,-42.4782"/>
</g>
<!-- 9 -->
<g id="node10" class="node"><title>9</title>
<path fill="none" stroke="#56c9d8" stroke-width="2" d="M196.346,-396C196.346,-396 119.846,-396 119.846,-396 113.846,-396 107.846,-390 107.846,-384 107.846,-384 107.846,-372 107.846,-372 107.846,-366 113.846,-360 119.846,-360 119.846,-360 196.346,-360 196.346,-360 202.346,-360 208.346,-366 208.346,-372 208.346,-372 208.346,-384 208.346,-384 208.346,-390 202.346,-396 196.346,-396"/>
<text text-anchor="middle" x="158.096" y="-375.5" font-family="sans" font-size="10.00">require_raw_bam</text>
</g>
<!-- 9&#45;&gt;0 -->
<g id="edge3" class="edge"><title>9&#45;&gt;0</title>
<path fill="none" stroke="grey" stroke-width="2" d="M114.503,-359.97C67.7364,-338.503 0.0959264,-296.775 0.0959264,-235 0.0959264,-235 0.0959264,-235 0.0959264,-161 0.0959264,-119.114 -1.4389,-98.3809 31.0959,-72 83.5267,-29.4864 278.585,-20.7679 381.526,-19.1816"/>
<polygon fill="grey" stroke="grey" points="381.845,-22.6777 391.797,-19.0423 381.75,-15.6783 381.845,-22.6777"/>
</g>
<!-- 10 -->
<g id="node11" class="node"><title>10</title>
<path fill="none" stroke="#9fd856" stroke-width="2" d="M1062.35,-540C1062.35,-540 937.846,-540 937.846,-540 931.846,-540 925.846,-534 925.846,-528 925.846,-528 925.846,-516 925.846,-516 925.846,-510 931.846,-504 937.846,-504 937.846,-504 1062.35,-504 1062.35,-504 1068.35,-504 1074.35,-510 1074.35,-516 1074.35,-516 1074.35,-528 1074.35,-528 1074.35,-534 1068.35,-540 1062.35,-540"/>
<text text-anchor="middle" x="1000.1" y="-519.5" font-family="sans" font-size="10.00">require_demulti_fastq_files</text>
</g>
<!-- 10&#45;&gt;0 -->
<g id="edge8" class="edge"><title>10&#45;&gt;0</title>
<path fill="none" stroke="grey" stroke-width="2" d="M1000.1,-503.951C1000.1,-477.292 1000.1,-424.115 1000.1,-379 1000.1,-379 1000.1,-379 1000.1,-161 1000.1,-60.9466 656.74,-30.4208 510.648,-21.9609"/>
<polygon fill="grey" stroke="grey" points="510.659,-18.4561 500.478,-21.3893 510.266,-25.445 510.659,-18.4561"/>
</g>
<!-- 11 -->
<g id="node12" class="node"><title>11</title>
<path fill="none" stroke="#56d873" stroke-width="2" d="M602.096,-108C602.096,-108 486.096,-108 486.096,-108 480.096,-108 474.096,-102 474.096,-96 474.096,-96 474.096,-84 474.096,-84 474.096,-78 480.096,-72 486.096,-72 486.096,-72 602.096,-72 602.096,-72 608.096,-72 614.096,-78 614.096,-84 614.096,-84 614.096,-96 614.096,-96 614.096,-102 608.096,-108 602.096,-108"/>
<text text-anchor="middle" x="544.096" y="-87.5" font-family="sans" font-size="10.00">generate_tss_enrichment</text>
</g>
<!-- 11&#45;&gt;0 -->
<g id="edge9" class="edge"><title>11&#45;&gt;0</title>
<path fill="none" stroke="grey" stroke-width="2" d="M520.122,-71.8761C507.546,-62.8931 491.963,-51.7625 478.344,-42.0341"/>
<polygon fill="grey" stroke="grey" points="480.333,-39.1541 470.162,-36.1898 476.265,-44.8502 480.333,-39.1541"/>
</g>
<!-- 12 -->
<g id="node13" class="node"><title>12</title>
<path fill="none" stroke="#56d8d0" stroke-width="2" d="M184.096,-180C184.096,-180 80.0959,-180 80.0959,-180 74.0959,-180 68.0959,-174 68.0959,-168 68.0959,-168 68.0959,-156 68.0959,-156 68.0959,-150 74.0959,-144 80.0959,-144 80.0959,-144 184.096,-144 184.096,-144 190.096,-144 196.096,-150 196.096,-156 196.096,-156 196.096,-168 196.096,-168 196.096,-174 190.096,-180 184.096,-180"/>
<text text-anchor="middle" x="132.096" y="-159.5" font-family="sans" font-size="10.00">extend_peak_summits</text>
</g>
<!-- 12&#45;&gt;1 -->
<g id="edge12" class="edge"><title>12&#45;&gt;1</title>
<path fill="none" stroke="grey" stroke-width="2" d="M126.411,-143.697C123.848,-135.898 120.763,-126.509 117.911,-117.829"/>
<polygon fill="grey" stroke="grey" points="121.163,-116.512 114.716,-108.104 114.512,-118.697 121.163,-116.512"/>
</g>
<!-- 13 -->
<g id="node14" class="node"><title>13</title>
<path fill="none" stroke="#61d856" stroke-width="2" d="M897.346,-252C897.346,-252 806.846,-252 806.846,-252 800.846,-252 794.846,-246 794.846,-240 794.846,-240 794.846,-228 794.846,-228 794.846,-222 800.846,-216 806.846,-216 806.846,-216 897.346,-216 897.346,-216 903.346,-216 909.346,-222 909.346,-228 909.346,-228 909.346,-240 909.346,-240 909.346,-246 903.346,-252 897.346,-252"/>
<text text-anchor="middle" x="852.096" y="-231.5" font-family="sans" font-size="10.00">count_bam_barcode</text>
</g>
<!-- 13&#45;&gt;2 -->
<g id="edge13" class="edge"><title>13&#45;&gt;2</title>
<path fill="none" stroke="grey" stroke-width="2" d="M851.354,-215.697C851.024,-207.983 850.626,-198.712 850.258,-190.112"/>
<polygon fill="grey" stroke="grey" points="853.754,-189.945 849.829,-180.104 846.76,-190.245 853.754,-189.945"/>
</g>
<!-- 14 -->
<g id="node15" class="node"><title>14</title>
<path fill="none" stroke="#56d882" stroke-width="2" d="M725.346,-252C725.346,-252 606.846,-252 606.846,-252 600.846,-252 594.846,-246 594.846,-240 594.846,-240 594.846,-228 594.846,-228 594.846,-222 600.846,-216 606.846,-216 606.846,-216 725.346,-216 725.346,-216 731.346,-216 737.346,-222 737.346,-228 737.346,-228 737.346,-240 737.346,-240 737.346,-246 731.346,-252 725.346,-252"/>
<text text-anchor="middle" x="666.096" y="-231.5" font-family="sans" font-size="10.00">count_bam_chrM_barcode</text>
</g>
<!-- 14&#45;&gt;2 -->
<g id="edge15" class="edge"><title>14&#45;&gt;2</title>
<path fill="none" stroke="grey" stroke-width="2" d="M710.863,-215.876C736.214,-206.179 768.107,-193.98 794.869,-183.743"/>
<polygon fill="grey" stroke="grey" points="796.385,-186.91 804.474,-180.068 793.884,-180.372 796.385,-186.91"/>
</g>
<!-- 15 -->
<g id="node16" class="node"><title>15</title>
<path fill="none" stroke="#d87556" stroke-width="2" d="M960.096,-468C960.096,-468 866.096,-468 866.096,-468 860.096,-468 854.096,-462 854.096,-456 854.096,-456 854.096,-444 854.096,-444 854.096,-438 860.096,-432 866.096,-432 866.096,-432 960.096,-432 960.096,-432 966.096,-432 972.096,-438 972.096,-444 972.096,-444 972.096,-456 972.096,-456 972.096,-462 966.096,-468 960.096,-468"/>
<text text-anchor="middle" x="913.096" y="-447.5" font-family="sans" font-size="10.00">count_fastq_barcode</text>
</g>
<!-- 15&#45;&gt;2 -->
<g id="edge14" class="edge"><title>15&#45;&gt;2</title>
<path fill="none" stroke="grey" stroke-width="2" d="M918.58,-431.759C930.344,-391.49 954.137,-289.129 918.096,-216 912.136,-203.907 901.945,-193.805 891.198,-185.774"/>
<polygon fill="grey" stroke="grey" points="893.143,-182.864 882.932,-180.039 889.153,-188.615 893.143,-182.864"/>
</g>
<!-- 16 -->
<g id="node17" class="node"><title>16</title>
<path fill="none" stroke="#8fd856" stroke-width="2" d="M325.346,-180C325.346,-180 266.846,-180 266.846,-180 260.846,-180 254.846,-174 254.846,-168 254.846,-168 254.846,-156 254.846,-156 254.846,-150 260.846,-144 266.846,-144 266.846,-144 325.346,-144 325.346,-144 331.346,-144 337.346,-150 337.346,-156 337.346,-156 337.346,-168 337.346,-168 337.346,-174 331.346,-180 325.346,-180"/>
<text text-anchor="middle" x="296.096" y="-159.5" font-family="sans" font-size="10.00">bamToBigWig</text>
</g>
<!-- 16&#45;&gt;3 -->
<g id="edge16" class="edge"><title>16&#45;&gt;3</title>
<path fill="none" stroke="grey" stroke-width="2" d="M311.669,-143.697C319.298,-135.22 328.619,-124.864 336.972,-115.583"/>
<polygon fill="grey" stroke="grey" points="339.614,-117.879 343.702,-108.104 334.411,-113.196 339.614,-117.879"/>
</g>
<!-- 17 -->
<g id="node18" class="node"><title>17</title>
<path fill="none" stroke="#d88556" stroke-width="2" d="M411.346,-252C411.346,-252 340.846,-252 340.846,-252 334.846,-252 328.846,-246 328.846,-240 328.846,-240 328.846,-228 328.846,-228 328.846,-222 334.846,-216 340.846,-216 340.846,-216 411.346,-216 411.346,-216 417.346,-216 423.346,-222 423.346,-228 423.346,-228 423.346,-240 423.346,-240 423.346,-246 417.346,-252 411.346,-252"/>
<text text-anchor="middle" x="376.096" y="-231.5" font-family="sans" font-size="10.00">csort_filter_bam</text>
</g>
<!-- 17&#45;&gt;4 -->
<g id="edge18" class="edge"><title>17&#45;&gt;4</title>
<path fill="none" stroke="grey" stroke-width="2" d="M387.22,-215.697C392.451,-207.559 398.796,-197.689 404.574,-188.701"/>
<polygon fill="grey" stroke="grey" points="407.637,-190.409 410.1,-180.104 401.749,-186.623 407.637,-190.409"/>
</g>
<!-- 17&#45;&gt;16 -->
<g id="edge32" class="edge"><title>17&#45;&gt;16</title>
<path fill="none" stroke="grey" stroke-width="2" d="M356.321,-215.697C346.342,-206.965 334.085,-196.24 323.239,-186.75"/>
<polygon fill="grey" stroke="grey" points="325.474,-184.055 315.644,-180.104 320.865,-189.323 325.474,-184.055"/>
</g>
<!-- 18 -->
<g id="node19" class="node"><title>18</title>
<path fill="none" stroke="#d8bc56" stroke-width="2" d="M526.096,-252C526.096,-252 454.096,-252 454.096,-252 448.096,-252 442.096,-246 442.096,-240 442.096,-240 442.096,-228 442.096,-228 442.096,-222 448.096,-216 454.096,-216 454.096,-216 526.096,-216 526.096,-216 532.096,-216 538.096,-222 538.096,-228 538.096,-228 538.096,-240 538.096,-240 538.096,-246 532.096,-252 526.096,-252"/>
<text text-anchor="middle" x="490.096" y="-231.5" font-family="sans" font-size="10.00">nsort_filter_bam</text>
</g>
<!-- 18&#45;&gt;4 -->
<g id="edge17" class="edge"><title>18&#45;&gt;4</title>
<path fill="none" stroke="grey" stroke-width="2" d="M473.04,-215.697C464.6,-207.135 454.271,-196.656 445.053,-187.304"/>
<polygon fill="grey" stroke="grey" points="447.469,-184.769 437.956,-180.104 442.483,-189.683 447.469,-184.769"/>
</g>
<!-- 25 -->
<g id="node26" class="node"><title>25</title>
<path fill="none" stroke="#56d892" stroke-width="2" d="M573.346,-180C573.346,-180 516.846,-180 516.846,-180 510.846,-180 504.846,-174 504.846,-168 504.846,-168 504.846,-156 504.846,-156 504.846,-150 510.846,-144 516.846,-144 516.846,-144 573.346,-144 573.346,-144 579.346,-144 585.346,-150 585.346,-156 585.346,-156 585.346,-168 585.346,-168 585.346,-174 579.346,-180 573.346,-180"/>
<text text-anchor="middle" x="545.096" y="-159.5" font-family="sans" font-size="10.00">fixmate_bam</text>
</g>
<!-- 18&#45;&gt;25 -->
<g id="edge41" class="edge"><title>18&#45;&gt;25</title>
<path fill="none" stroke="grey" stroke-width="2" d="M503.691,-215.697C510.219,-207.389 518.164,-197.277 525.343,-188.141"/>
<polygon fill="grey" stroke="grey" points="528.231,-190.13 531.657,-180.104 522.726,-185.805 528.231,-190.13"/>
</g>
<!-- 19 -->
<g id="node20" class="node"><title>19</title>
<path fill="none" stroke="#56a9d8" stroke-width="2" d="M566.346,-324C566.346,-324 463.846,-324 463.846,-324 457.846,-324 451.846,-318 451.846,-312 451.846,-312 451.846,-300 451.846,-300 451.846,-294 457.846,-288 463.846,-288 463.846,-288 566.346,-288 566.346,-288 572.346,-288 578.346,-294 578.346,-300 578.346,-300 578.346,-312 578.346,-312 578.346,-318 572.346,-324 566.346,-324"/>
<text text-anchor="middle" x="515.096" y="-303.5" font-family="sans" font-size="10.00">filter_proper_pair_bam</text>
</g>
<!-- 19&#45;&gt;5 -->
<g id="edge19" class="edge"><title>19&#45;&gt;5</title>
<path fill="none" stroke="grey" stroke-width="2" d="M528.474,-287.905C542.53,-269.963 565.305,-240.95 585.096,-216 612.561,-181.376 644.491,-141.534 664.742,-116.317"/>
<polygon fill="grey" stroke="grey" points="667.604,-118.342 671.138,-108.354 662.147,-113.959 667.604,-118.342"/>
</g>
<!-- 19&#45;&gt;13 -->
<g id="edge27" class="edge"><title>19&#45;&gt;13</title>
<path fill="none" stroke="grey" stroke-width="2" d="M578.483,-291.834C637.241,-279.629 724.391,-261.526 784.468,-249.047"/>
<polygon fill="grey" stroke="grey" points="785.533,-252.401 794.612,-246.94 784.109,-245.547 785.533,-252.401"/>
</g>
<!-- 19&#45;&gt;14 -->
<g id="edge30" class="edge"><title>19&#45;&gt;14</title>
<path fill="none" stroke="grey" stroke-width="2" d="M552.035,-287.876C572.586,-278.349 598.347,-266.407 620.185,-256.283"/>
<polygon fill="grey" stroke="grey" points="621.677,-259.45 629.277,-252.068 618.733,-253.099 621.677,-259.45"/>
</g>
<!-- 19&#45;&gt;17 -->
<g id="edge33" class="edge"><title>19&#45;&gt;17</title>
<path fill="none" stroke="grey" stroke-width="2" d="M481.093,-287.876C462.498,-278.512 439.269,-266.814 419.39,-256.803"/>
<polygon fill="grey" stroke="grey" points="420.736,-253.562 410.23,-252.19 417.587,-259.814 420.736,-253.562"/>
</g>
<!-- 19&#45;&gt;18 -->
<g id="edge34" class="edge"><title>19&#45;&gt;18</title>
<path fill="none" stroke="grey" stroke-width="2" d="M508.916,-287.697C506.101,-279.813 502.705,-270.304 499.577,-261.546"/>
<polygon fill="grey" stroke="grey" points="502.864,-260.345 496.205,-252.104 496.272,-262.699 502.864,-260.345"/>
</g>
<!-- 22 -->
<g id="node23" class="node"><title>22</title>
<path fill="none" stroke="#70d856" stroke-width="2" d="M296.096,-252C296.096,-252 198.096,-252 198.096,-252 192.096,-252 186.096,-246 186.096,-240 186.096,-240 186.096,-228 186.096,-228 186.096,-222 192.096,-216 198.096,-216 198.096,-216 296.096,-216 296.096,-216 302.096,-216 308.096,-222 308.096,-228 308.096,-228 308.096,-240 308.096,-240 308.096,-246 302.096,-252 296.096,-252"/>
<text text-anchor="middle" x="247.096" y="-231.5" font-family="sans" font-size="10.00">filter_low_mapq_bam</text>
</g>
<!-- 19&#45;&gt;22 -->
<g id="edge38" class="edge"><title>19&#45;&gt;22</title>
<path fill="none" stroke="grey" stroke-width="2" d="M451.584,-288.411C411.46,-277.931 359.549,-264.372 318.071,-253.538"/>
<polygon fill="grey" stroke="grey" points="318.867,-250.129 308.308,-250.988 317.098,-256.902 318.867,-250.129"/>
</g>
<!-- 26 -->
<g id="node27" class="node"><title>26</title>
<path fill="none" stroke="#56b9d8" stroke-width="2" d="M155.096,-252C155.096,-252 111.096,-252 111.096,-252 105.096,-252 99.0959,-246 99.0959,-240 99.0959,-240 99.0959,-228 99.0959,-228 99.0959,-222 105.096,-216 111.096,-216 111.096,-216 155.096,-216 155.096,-216 161.096,-216 167.096,-222 167.096,-228 167.096,-228 167.096,-240 167.096,-240 167.096,-246 161.096,-252 155.096,-252"/>
<text text-anchor="middle" x="133.096" y="-231.5" font-family="sans" font-size="10.00">call_peaks</text>
</g>
<!-- 19&#45;&gt;26 -->
<g id="edge42" class="edge"><title>19&#45;&gt;26</title>
<path fill="none" stroke="grey" stroke-width="2" d="M451.652,-299.132C383.093,-291.849 271.037,-277.204 177.096,-252 176.997,-251.973 176.898,-251.947 176.799,-251.92"/>
<polygon fill="grey" stroke="grey" points="178.038,-248.639 167.452,-249.072 175.997,-255.335 178.038,-248.639"/>
</g>
<!-- 20 -->
<g id="node21" class="node"><title>20</title>
<path fill="none" stroke="#56d8a2" stroke-width="2" d="M728.096,-396C728.096,-396 678.096,-396 678.096,-396 672.096,-396 666.096,-390 666.096,-384 666.096,-384 666.096,-372 666.096,-372 666.096,-366 672.096,-360 678.096,-360 678.096,-360 728.096,-360 728.096,-360 734.096,-360 740.096,-366 740.096,-372 740.096,-372 740.096,-384 740.096,-384 740.096,-390 734.096,-396 728.096,-396"/>
<text text-anchor="middle" x="703.096" y="-375.5" font-family="sans" font-size="10.00">dedup_bam</text>
</g>
<!-- 20&#45;&gt;6 -->
<g id="edge20" class="edge"><title>20&#45;&gt;6</title>
<path fill="none" stroke="grey" stroke-width="2" d="M703.096,-359.697C703.096,-351.983 703.096,-342.712 703.096,-334.112"/>
<polygon fill="grey" stroke="grey" points="706.596,-334.104 703.096,-324.104 699.596,-334.104 706.596,-334.104"/>
</g>
<!-- 20&#45;&gt;13 -->
<g id="edge28" class="edge"><title>20&#45;&gt;13</title>
<path fill="none" stroke="grey" stroke-width="2" d="M725.662,-359.783C738.452,-349.736 754.555,-336.594 768.096,-324 790.222,-303.421 813.689,-278.24 830.178,-259.92"/>
<polygon fill="grey" stroke="grey" points="833.178,-261.815 837.233,-252.027 827.959,-257.15 833.178,-261.815"/>
</g>
<!-- 20&#45;&gt;19 -->
<g id="edge35" class="edge"><title>20&#45;&gt;19</title>
<path fill="none" stroke="grey" stroke-width="2" d="M665.953,-363.17C638.723,-353.032 601.297,-339.096 570.536,-327.643"/>
<polygon fill="grey" stroke="grey" points="571.397,-324.228 560.804,-324.019 568.954,-330.788 571.397,-324.228"/>
</g>
<!-- 21 -->
<g id="node22" class="node"><title>21</title>
<path fill="none" stroke="#569ad8" stroke-width="2" d="M725.096,-468C725.096,-468 681.096,-468 681.096,-468 675.096,-468 669.096,-462 669.096,-456 669.096,-456 669.096,-444 669.096,-444 669.096,-438 675.096,-432 681.096,-432 681.096,-432 725.096,-432 725.096,-432 731.096,-432 737.096,-438 737.096,-444 737.096,-444 737.096,-456 737.096,-456 737.096,-462 731.096,-468 725.096,-468"/>
<text text-anchor="middle" x="703.096" y="-447.5" font-family="sans" font-size="10.00">csort_bam</text>
</g>
<!-- 21&#45;&gt;7 -->
<g id="edge21" class="edge"><title>21&#45;&gt;7</title>
<path fill="none" stroke="grey" stroke-width="2" d="M668.971,-438.443C592.342,-414.736 405.63,-356.974 307.204,-326.524"/>
<polygon fill="grey" stroke="grey" points="307.972,-323.098 297.384,-323.486 305.903,-329.785 307.972,-323.098"/>
</g>
<!-- 21&#45;&gt;20 -->
<g id="edge36" class="edge"><title>21&#45;&gt;20</title>
<path fill="none" stroke="grey" stroke-width="2" d="M703.096,-431.697C703.096,-423.983 703.096,-414.712 703.096,-406.112"/>
<polygon fill="grey" stroke="grey" points="706.596,-406.104 703.096,-396.104 699.596,-406.104 706.596,-406.104"/>
</g>
<!-- 22&#45;&gt;8 -->
<g id="edge22" class="edge"><title>22&#45;&gt;8</title>
<path fill="none" stroke="grey" stroke-width="2" d="M244.563,-215.871C240.984,-191.67 234.409,-147.211 230.147,-118.393"/>
<polygon fill="grey" stroke="grey" points="233.563,-117.57 228.638,-108.189 226.639,-118.594 233.563,-117.57"/>
</g>
<!-- 23 -->
<g id="node24" class="node"><title>23</title>
<path fill="none" stroke="#568ad8" stroke-width="2" d="M794.346,-540C794.346,-540 733.846,-540 733.846,-540 727.846,-540 721.846,-534 721.846,-528 721.846,-528 721.846,-516 721.846,-516 721.846,-510 727.846,-504 733.846,-504 733.846,-504 794.346,-504 794.346,-504 800.346,-504 806.346,-510 806.346,-516 806.346,-516 806.346,-528 806.346,-528 806.346,-534 800.346,-540 794.346,-540"/>
<text text-anchor="middle" x="764.096" y="-519.5" font-family="sans" font-size="10.00">align_bowtie2</text>
</g>
<!-- 23&#45;&gt;9 -->
<g id="edge23" class="edge"><title>23&#45;&gt;9</title>
<path fill="none" stroke="grey" stroke-width="2" d="M721.483,-511.015C615.748,-486.239 341.078,-421.877 218.591,-393.175"/>
<polygon fill="grey" stroke="grey" points="219.163,-389.715 208.629,-390.841 217.566,-396.53 219.163,-389.715"/>
</g>
<!-- 23&#45;&gt;13 -->
<g id="edge29" class="edge"><title>23&#45;&gt;13</title>
<path fill="none" stroke="grey" stroke-width="2" d="M769.337,-503.966C784.067,-456.093 825.924,-320.06 843.818,-261.904"/>
<polygon fill="grey" stroke="grey" points="847.175,-262.894 846.771,-252.306 840.485,-260.835 847.175,-262.894"/>
</g>
<!-- 23&#45;&gt;21 -->
<g id="edge37" class="edge"><title>23&#45;&gt;21</title>
<path fill="none" stroke="grey" stroke-width="2" d="M749.017,-503.697C741.704,-495.305 732.786,-485.07 724.761,-475.861"/>
<polygon fill="grey" stroke="grey" points="727.21,-473.344 718.001,-468.104 721.932,-477.943 727.21,-473.344"/>
</g>
<!-- 24 -->
<g id="node25" class="node"><title>24</title>
<path fill="none" stroke="#d85656" stroke-width="2" d="M963.346,-612C963.346,-612 830.846,-612 830.846,-612 824.846,-612 818.846,-606 818.846,-600 818.846,-600 818.846,-588 818.846,-588 818.846,-582 824.846,-576 830.846,-576 830.846,-576 963.346,-576 963.346,-576 969.346,-576 975.346,-582 975.346,-588 975.346,-588 975.346,-600 975.346,-600 975.346,-606 969.346,-612 963.346,-612"/>
<text text-anchor="middle" x="897.096" y="-591.5" font-family="sans" font-size="10.00">combine_demulti_fastq_files</text>
</g>
<!-- 24&#45;&gt;10 -->
<g id="edge24" class="edge"><title>24&#45;&gt;10</title>
<path fill="none" stroke="grey" stroke-width="2" d="M922.293,-575.876C935.51,-566.893 951.888,-555.763 966.203,-546.034"/>
<polygon fill="grey" stroke="grey" points="968.499,-548.705 974.802,-540.19 964.564,-542.916 968.499,-548.705"/>
</g>
<!-- 24&#45;&gt;15 -->
<g id="edge31" class="edge"><title>24&#45;&gt;15</title>
<path fill="none" stroke="grey" stroke-width="2" d="M899.026,-575.871C901.753,-551.67 906.762,-507.211 910.009,-478.393"/>
<polygon fill="grey" stroke="grey" points="913.517,-478.518 911.159,-468.189 906.561,-477.734 913.517,-478.518"/>
</g>
<!-- 24&#45;&gt;23 -->
<g id="edge39" class="edge"><title>24&#45;&gt;23</title>
<path fill="none" stroke="grey" stroke-width="2" d="M864.56,-575.876C846.849,-566.554 824.743,-554.919 805.78,-544.939"/>
<polygon fill="grey" stroke="grey" points="807.236,-541.75 796.756,-540.19 803.976,-547.944 807.236,-541.75"/>
</g>
<!-- 25&#45;&gt;11 -->
<g id="edge25" class="edge"><title>25&#45;&gt;11</title>
<path fill="none" stroke="grey" stroke-width="2" d="M544.849,-143.697C544.739,-135.983 544.606,-126.712 544.483,-118.112"/>
<polygon fill="grey" stroke="grey" points="547.983,-118.053 544.34,-108.104 540.984,-118.153 547.983,-118.053"/>
</g>
<!-- 26&#45;&gt;12 -->
<g id="edge26" class="edge"><title>26&#45;&gt;12</title>
<path fill="none" stroke="grey" stroke-width="2" d="M132.849,-215.697C132.739,-207.983 132.606,-198.712 132.483,-190.112"/>
<polygon fill="grey" stroke="grey" points="135.983,-190.053 132.34,-180.104 128.984,-190.153 135.983,-190.053"/>
</g>
<!-- 27 -->
<g id="node28" class="node"><title>27</title>
<path fill="none" stroke="#56d8c1" stroke-width="2" d="M922.346,-684C922.346,-684 871.846,-684 871.846,-684 865.846,-684 859.846,-678 859.846,-672 859.846,-672 859.846,-660 859.846,-660 859.846,-654 865.846,-648 871.846,-648 871.846,-648 922.346,-648 922.346,-648 928.346,-648 934.346,-654 934.346,-660 934.346,-660 934.346,-672 934.346,-672 934.346,-678 928.346,-684 922.346,-684"/>
<text text-anchor="middle" x="897.096" y="-663.5" font-family="sans" font-size="10.00">demultiplex</text>
</g>
<!-- 27&#45;&gt;24 -->
<g id="edge40" class="edge"><title>27&#45;&gt;24</title>
<path fill="none" stroke="grey" stroke-width="2" d="M897.096,-647.697C897.096,-639.983 897.096,-630.712 897.096,-622.112"/>
<polygon fill="grey" stroke="grey" points="900.596,-622.104 897.096,-612.104 893.596,-622.104 900.596,-622.104"/>
</g>
</g>
</svg>
